<?xml version="1.0" encoding="UTF-8" standalone="no"?>
<!DOCTYPE svg PUBLIC "-//W3C//DTD SVG 1.1//EN" "http://www.w3.org/Graphics/SVG/1.1/DTD/svg11.dtd">
<svg width="100%" height="100%" viewBox="0 0 500 300" version="1.1" xmlns="http://www.w3.org/2000/svg" xmlns:xlink="http://www.w3.org/1999/xlink" xml:space="preserve" xmlns:serif="http://www.serif.com/" style="fill-rule:evenodd;clip-rule:evenodd;">
    <g transform="matrix(2.07514,0,0,2.07514,-1631.13,-547.664)">
        <g transform="matrix(1,0,0,1,866.244,370.641)">
            <path d="M0,-69.66C3.486,-62.523 2.587,-53.593 2.754,-45.11L-15.952,-45.11C-16.231,-51.066 -15.009,-60.014 -17.525,-62.863C-18.422,-64.438 -20.164,-64.768 -21.852,-64.551C-23.591,-64.38 -25.447,-63.593 -26.064,-61.852C-26.808,-60.434 -26.793,-55.785 -26.852,-52.639L-26.623,-8.425C-26.458,-6.573 -25.56,-4.499 -23.647,-3.882C-21.961,-3.429 -19.604,-3.317 -18.197,-4.388C-16.064,-6.067 -15.839,-8.655 -15.67,-11.177L-15.67,-25.732L3.036,-25.732C2.868,-19.606 3.486,-13.145 2.529,-7.302L-22.469,11.687C-30.161,11.515 -37.805,9.493 -41.906,2.362C-45.163,-3.651 -45.669,-10.731 -45.555,-18.143L-45.499,-55.727C-45.106,-65.108 -42.185,-75.614 -32.298,-78.925C-24.547,-81.347 -14.099,-81.288 -7.078,-77.413C-4.098,-75.726 -1.288,-72.692 0,-69.66" style="fill-rule:nonzero;"/>
        </g>
        <g transform="matrix(1,0,0,1,976.577,364.515)">
            <path d="M0,-55.897L-14.996,-55.897L-15.056,16.401L-18.371,16.401L-33.814,4.161L-33.814,-55.837L-48.479,-55.897L-48.479,-72.298L0,-72.298L0,-55.897Z" style="fill-rule:nonzero;"/>
        </g>
        <g transform="matrix(1,0,0,1,903.436,343.781)">
            <path d="M0,-35.492L-0.339,-35.492L-4.889,-11.001L5.052,-10.888L0,-35.492ZM28.535,16.072L0.055,-6.791L-10.227,0.904L-28.204,14.561L-12.978,-51.564L13.703,-51.564L28.535,16.072Z" style="fill-rule:nonzero;"/>
        </g>
        <g transform="matrix(1,0,0,1,854.789,343.844)">
            <path d="M0,37.072L48.366,0L94.6,37.021L0,37.072Z" style="fill:rgb(241,214,14);fill-rule:nonzero;stroke:rgb(241,214,14);stroke-width:2.68px;"/>
        </g>
        <g transform="matrix(16.7406,0,0,15.3384,978.827,303.231)">
            <path d="M0.423,0.018C0.321,0.018 0.233,-0.019 0.159,-0.094C0.085,-0.169 0.048,-0.258 0.048,-0.361C0.048,-0.466 0.085,-0.556 0.16,-0.63C0.234,-0.704 0.323,-0.741 0.428,-0.741C0.532,-0.741 0.622,-0.704 0.696,-0.63C0.77,-0.556 0.807,-0.466 0.807,-0.362C0.807,-0.256 0.77,-0.166 0.696,-0.093C0.621,-0.019 0.53,0.018 0.423,0.018ZM0.423,-0.036C0.529,-0.036 0.614,-0.075 0.676,-0.153C0.727,-0.216 0.753,-0.286 0.753,-0.362C0.753,-0.437 0.727,-0.506 0.676,-0.57C0.614,-0.648 0.531,-0.687 0.428,-0.687C0.325,-0.687 0.242,-0.648 0.179,-0.57C0.128,-0.506 0.103,-0.437 0.103,-0.361C0.103,-0.273 0.134,-0.196 0.197,-0.132C0.261,-0.068 0.336,-0.036 0.423,-0.036ZM0.303,-0.155L0.303,-0.565L0.432,-0.565C0.473,-0.565 0.504,-0.557 0.525,-0.54C0.546,-0.523 0.556,-0.498 0.556,-0.464C0.556,-0.44 0.55,-0.417 0.538,-0.397C0.526,-0.378 0.508,-0.36 0.484,-0.346L0.608,-0.155L0.531,-0.155L0.42,-0.326L0.369,-0.326L0.369,-0.155L0.303,-0.155ZM0.364,-0.377L0.383,-0.377C0.419,-0.377 0.447,-0.384 0.465,-0.397C0.483,-0.411 0.492,-0.431 0.492,-0.458C0.492,-0.479 0.484,-0.496 0.469,-0.506C0.454,-0.517 0.431,-0.522 0.401,-0.522L0.364,-0.522L0.364,-0.377Z" style="fill-rule:nonzero;"/>
        </g>
    </g>
</svg>
